<svg xmlns="http://www.w3.org/2000/svg" xmlns:xlink="http://www.w3.org/1999/xlink" xmlns:lucid="lucid" width="642" height="502"><g transform="translate(-579 -379)" lucid:page-tab-id="0_0"><path d="M500 0h1000v1000H500z" fill="#fff"/><path d="M600 406a6 6 0 0 1 6-6h588a6 6 0 0 1 6 6v248a6 6 0 0 1-6 6H606a6 6 0 0 1-6-6z" stroke="#000" stroke-width="2" fill="#edf5ff"/><use xlink:href="#a" transform="matrix(1,0,0,1,612,412) translate(288 25.900607638888882)"/><use xlink:href="#b" transform="matrix(1,0,0,1,612,412) translate(231.99088541666669 61.14366319444443)"/><path d="M680 746a6 6 0 0 1 6-6h148a6 6 0 0 1 6 6v108a6 6 0 0 1-6 6H686a6 6 0 0 1-6-6z" stroke="#000" stroke-width="2" fill="#fcfcca"/><use xlink:href="#c" transform="matrix(1,0,0,1,692,752) translate(-5.3452690972222 41.32682291666667)"/><use xlink:href="#d" transform="matrix(1,0,0,1,692,752) translate(14.657986111111121 66.50043402777777)"/><use xlink:href="#e" transform="matrix(1,0,0,1,692,752) translate(81.33550347222223 66.50043402777777)"/><path d="M960 746a6 6 0 0 1 6-6h148a6 6 0 0 1 6 6v108a6 6 0 0 1-6 6H966a6 6 0 0 1-6-6z" stroke="#000" stroke-width="2" fill="#fcfcca"/><use xlink:href="#c" transform="matrix(1,0,0,1,972,752) translate(-5.3452690972222 41.32682291666667)"/><use xlink:href="#f" transform="matrix(1,0,0,1,972,752) translate(7.990234375000014 66.50043402777777)"/><use xlink:href="#e" transform="matrix(1,0,0,1,972,752) translate(88.00325520833333 66.50043402777777)"/><path d="M631.78 526a6 6 0 0 1 6-6h104.44a6 6 0 0 1 6 6v75.33a6 6 0 0 1-6 6H637.78a6 6 0 0 1-6-6z" stroke="#000" stroke-width="2" fill="#cfe4ff"/><use xlink:href="#g" transform="matrix(1,0,0,1,643.7777777777778,532) translate(6.493489583333343 26.500434027777775)"/><use xlink:href="#h" transform="matrix(1,0,0,1,643.7777777777778,532) translate(26.49674479166667 51.674045138888886)"/><path d="M771.78 526a6 6 0 0 1 6-6h104.44a6 6 0 0 1 6 6v75.33a6 6 0 0 1-6 6H777.78a6 6 0 0 1-6-6z" stroke="#000" stroke-width="2" fill="#cfe4ff"/><use xlink:href="#i" transform="matrix(1,0,0,1,783.7777777777778,532) translate(-0.17426215277776436 25.326822916666668)"/><use xlink:href="#h" transform="matrix(1,0,0,1,783.7777777777778,532) translate(26.49674479166667 50.50043402777777)"/><path d="M911.78 526a6 6 0 0 1 6-6h104.44a6 6 0 0 1 6 6v75.33a6 6 0 0 1-6 6H917.78a6 6 0 0 1-6-6z" stroke="#000" stroke-width="2" fill="#cfe4ff"/><use xlink:href="#j" transform="matrix(1,0,0,1,923.7777777777778,532) translate(-0.17426215277776436 25.326822916666668)"/><use xlink:href="#h" transform="matrix(1,0,0,1,923.7777777777778,532) translate(26.49674479166667 50.50043402777777)"/><path d="M1001 738v-32a6 6 0 0 0-6-6H836a6 6 0 0 1-6-6v-67.16" stroke="#000" stroke-width="2" fill="none"/><path d="M1002 739h-2v-1.03h2z" stroke="#000" stroke-width=".05"/><path d="M830 611.57l4.63 14.26h-9.26z" stroke="#000" stroke-width="2"/><path d="M1040 738v-58.33a6 6 0 0 0-6-6h-58a6 6 0 0 1-6-6v-40.83" stroke="#000" stroke-width="2" fill="none"/><path d="M1041 739h-2v-1.03h2z" stroke="#000" stroke-width=".05"/><path d="M970 611.57l4.63 14.26h-9.26z" stroke="#000" stroke-width="2"/><path d="M760 738v-58.33a6 6 0 0 0-6-6h-58a6 6 0 0 1-6-6v-40.83" stroke="#000" stroke-width="2" fill="none"/><path d="M761 739h-2v-1.03h2z" stroke="#000" stroke-width=".05"/><path d="M690 611.57l4.63 14.26h-9.26z" stroke="#000" stroke-width="2"/><path d="M1051.78 526a6 6 0 0 1 6-6h104.44a6 6 0 0 1 6 6v75.33a6 6 0 0 1-6 6h-104.44a6 6 0 0 1-6-6z" stroke="#000" stroke-width="2" fill="#ffdda6"/><g><use xlink:href="#k" transform="matrix(1,0,0,1,1063.7777777777778,532) translate(13.16124131944445 38.50043402777777)"/></g><path d="M1080.33 738v-58.33a6 6 0 0 1 6-6H1104a6 6 0 0 0 6-6v-40.83" stroke="#000" stroke-width="2" fill="none"/><path d="M1081.33 739h-2v-1.03h2z" stroke="#000" stroke-width=".05"/><path d="M1110 611.57l4.63 14.26h-9.27z" stroke="#000" stroke-width="2"/><defs><path d="M865-312c-44-312-23-686-28-1037h257V0H748L364-1010c44 304 24 668 28 1010H135v-1349h337" id="l"/><path d="M616-1102c361 0 521 202 521 560 0 354-171 562-527 562C259 20 92-192 92-542c0-351 169-560 524-560zm-9 930c200-2 236-165 236-370 0-199-27-367-223-367-195 0-233 146-233 367 0 129 18 223 55 282s92 88 165 88" id="m"/><path d="M802-909c-3-189-2-383-2-575h281v1248c-1 83 4 168 8 236H817c-9-50-14-117-15-176h-4C735-49 651 20 482 20 191 20 97-238 97-539c0-243 66-432 221-519 50-28 108-42 175-42 162 2 253 78 309 191zm-70 658c91-113 93-462 2-584-46-61-145-100-224-53-96 56-119 190-120 349 0 123 17 214 52 275 46 82 130 115 222 74 25-12 46-33 68-61" id="n"/><g id="b"><use transform="matrix(0.015190972222222219,0,0,0.015190972222222219,0,0)" xlink:href="#l"/><use transform="matrix(0.015190972222222219,0,0,0.015190972222222219,18.669704861111107,0)" xlink:href="#m"/><use transform="matrix(0.015190972222222219,0,0,0.015190972222222219,37.339409722222214,0)" xlink:href="#l"/><use transform="matrix(0.015190972222222219,0,0,0.015190972222222219,56.00911458333332,0)" xlink:href="#m"/><use transform="matrix(0.015190972222222219,0,0,0.015190972222222219,74.67881944444443,0)" xlink:href="#n"/><use transform="matrix(0.015190972222222219,0,0,0.015190972222222219,93.34852430555554,0)" xlink:href="#m"/></g><path d="M1034 0L896-382H333L196 0H0l510-1349h217L1228 0h-194zM847-531c-77-225-157-447-231-674-69 231-154 451-232 674h463" id="o"/><path d="M698-1104c312 3 392 244 392 558 0 315-82 566-392 566-169 0-277-65-331-184h-5c8 188 2 394 4 589H185V-858c0-76-1-156-6-224h175c6 52 9 120 10 178h4c58-122 150-202 330-200zm-49 991c225 0 255-203 255-433 0-225-32-419-253-419-236 0-285 192-285 441 0 237 53 411 283 411" id="p"/><path d="M736-142h380V0H134v-142h422v-1200H267v-142h469v1342" id="q"/><path d="M745-142h380V0H143v-142h422v-798H246v-142h499v940zM545-1292v-192h200v192H545" id="r"/><path d="M631 20c-350 0-501-215-501-562 0-355 162-560 502-560 250 0 399 118 446 323l-192 14c-23-124-109-196-262-196-242 0-305 171-305 415 1 245 61 427 304 427 151 0 248-77 267-215l190 12C1039-107 883 20 631 20" id="s"/><path d="M1000-272c3 95 12 159 101 161 21 0 41-3 59-7V-6c-44 10-86 16-139 16-141 2-191-84-197-217h-6C748-76 648 20 446 20c-207 0-318-120-318-322 0-266 194-348 454-354l236-4c12-191-40-305-222-305-140 0-220 47-232 172l-188-17c33-204 181-292 423-292 255 0 401 118 401 364v466zm-683-27c0 109 63 184 175 182 166-3 259-96 306-217 24-65 20-120 20-200-232 7-501-28-501 235" id="t"/><path d="M682 16c-209 0-323-80-324-285v-671H190v-142h170l58-282h120v282h432v142H538v652c2 114 60 155 182 155 106 0 209-16 297-34v137C921-4 806 16 682 16" id="u"/><path d="M615-1102c343 0 484 203 482 560-1 347-147 562-488 562-336 0-475-219-479-562-4-349 156-560 485-560zm-8 989c240 0 301-180 301-429 0-245-55-427-290-427-236 0-299 181-299 427 0 243 61 429 288 429" id="v"/><path d="M706-1102c241 0 344 136 343 381V0H868v-695c1-168-57-273-220-268-190 6-283 138-283 336V0H185c-3-360 6-732-6-1082h170c4 54 7 126 8 185h3c63-121 164-204 346-205" id="w"/><g id="c"><use transform="matrix(0.010850694444444442,0,0,0.010850694444444442,0,0)" xlink:href="#o"/><use transform="matrix(0.010850694444444442,0,0,0.010850694444444442,13.33550347222222,0)" xlink:href="#p"/><use transform="matrix(0.010850694444444442,0,0,0.010850694444444442,26.67100694444444,0)" xlink:href="#p"/><use transform="matrix(0.010850694444444442,0,0,0.010850694444444442,40.00651041666666,0)" xlink:href="#q"/><use transform="matrix(0.010850694444444442,0,0,0.010850694444444442,53.34201388888888,0)" xlink:href="#r"/><use transform="matrix(0.010850694444444442,0,0,0.010850694444444442,66.6775173611111,0)" xlink:href="#s"/><use transform="matrix(0.010850694444444442,0,0,0.010850694444444442,80.01302083333331,0)" xlink:href="#t"/><use transform="matrix(0.010850694444444442,0,0,0.010850694444444442,93.34852430555554,0)" xlink:href="#u"/><use transform="matrix(0.010850694444444442,0,0,0.010850694444444442,106.68402777777774,0)" xlink:href="#r"/><use transform="matrix(0.010850694444444442,0,0,0.010850694444444442,120.01953124999996,0)" xlink:href="#v"/><use transform="matrix(0.010850694444444442,0,0,0.010850694444444442,133.35503472222217,0)" xlink:href="#w"/></g><path d="M802-711c201 25 350 118 350 331C1152-95 921 0 634 0H162v-1349c401 9 908-74 908 327 0 184-111 275-268 311zm-224-69c174-2 300-51 300-218 0-163-124-198-302-198H353v416h225zM353-153c281-2 612 44 606-244-5-271-329-233-606-234v478" id="x"/><path d="M914 0L548-499l-132 98V0H236v-1484h180v927l475-525h211L663-617 1125 0H914" id="y"/><g id="d"><use transform="matrix(0.010850694444444442,0,0,0.010850694444444442,0,0)" xlink:href="#x"/><use transform="matrix(0.010850694444444442,0,0,0.010850694444444442,13.33550347222222,0)" xlink:href="#t"/><use transform="matrix(0.010850694444444442,0,0,0.010850694444444442,26.67100694444444,0)" xlink:href="#s"/><use transform="matrix(0.010850694444444442,0,0,0.010850694444444442,40.00651041666666,0)" xlink:href="#y"/></g><path d="M162 0v-1349h919v156H353v422h668v154H353v461h769V0H162" id="z"/><path d="M865-914c-3-187-2-380-2-570h180v1261c0 76 1 155 6 223H877c-8-49-9-116-10-174h-5C801-44 708 26 530 26c-135 0-234-46-297-139s-95-232-95-419c0-377 131-566 392-566 176 0 271 63 335 184zm-286-51c-222 0-255 197-255 427 0 229 31 425 253 425 237 0 286-195 286-441 0-238-52-411-284-411" id="A"/><g id="e"><use transform="matrix(0.010850694444444442,0,0,0.010850694444444442,0,0)" xlink:href="#z"/><use transform="matrix(0.010850694444444442,0,0,0.010850694444444442,13.33550347222222,0)" xlink:href="#w"/><use transform="matrix(0.010850694444444442,0,0,0.010850694444444442,26.67100694444444,0)" xlink:href="#A"/></g><path d="M385-1193v494h676v158H385V0H194v-1349h891v156H385" id="B"/><path d="M839-1102c70 0 148 7 206 17v167c-112-18-268-36-363 15-129 69-208 203-208 395V0H294c-10-367 32-789-52-1082h171c21 75 41 161 48 250h5c67-152 152-270 373-270" id="C"/><g id="f"><use transform="matrix(0.010850694444444442,0,0,0.010850694444444442,0,0)" xlink:href="#B"/><use transform="matrix(0.010850694444444442,0,0,0.010850694444444442,13.33550347222222,0)" xlink:href="#C"/><use transform="matrix(0.010850694444444442,0,0,0.010850694444444442,26.67100694444444,0)" xlink:href="#v"/><use transform="matrix(0.010850694444444442,0,0,0.010850694444444442,40.00651041666666,0)" xlink:href="#w"/><use transform="matrix(0.010850694444444442,0,0,0.010850694444444442,53.34201388888888,0)" xlink:href="#u"/></g><path d="M1121-976c0 225-142 341-344 379L1177 0H957L591-575H353V0H162v-1349h482c281 3 477 100 477 373zM633-726c181-1 296-73 296-247 0-149-101-223-304-223H353v470h280" id="D"/><path d="M528 20c-247 0-343-132-343-381v-721h180v686c-4 177 45 284 224 277 194-8 279-136 279-336v-627h181c3 360-6 732 6 1082H885c-4-54-7-126-8-185h-3C809-64 714 20 528 20" id="E"/><g id="g"><use transform="matrix(0.010850694444444442,0,0,0.010850694444444442,0,0)" xlink:href="#D"/><use transform="matrix(0.010850694444444442,0,0,0.010850694444444442,13.33550347222222,0)" xlink:href="#v"/><use transform="matrix(0.010850694444444442,0,0,0.010850694444444442,26.67100694444444,0)" xlink:href="#q"/><use transform="matrix(0.010850694444444442,0,0,0.010850694444444442,40.00651041666666,0)" xlink:href="#q"/><use transform="matrix(0.010850694444444442,0,0,0.010850694444444442,53.34201388888888,0)" xlink:href="#E"/><use transform="matrix(0.010850694444444442,0,0,0.010850694444444442,66.6775173611111,0)" xlink:href="#p"/></g><path d="M622-1349c296 4 497 117 497 404 0 282-193 424-485 431H353V0H162v-1349h460zm-15 684c195-3 320-88 320-277 0-184-129-255-328-254H353v531h254" id="F"/><path d="M202-1349h823v156H709v1037h316V0H202v-156h316v-1037H202v-156" id="G"/><g id="h"><use transform="matrix(0.010850694444444442,0,0,0.010850694444444442,0,0)" xlink:href="#o"/><use transform="matrix(0.010850694444444442,0,0,0.010850694444444442,13.33550347222222,0)" xlink:href="#F"/><use transform="matrix(0.010850694444444442,0,0,0.010850694444444442,26.67100694444444,0)" xlink:href="#G"/></g><path d="M873-819c-18-114-119-146-250-146-163 0-245 50-245 151 0 151 170 148 294 185 182 54 388 94 388 320 0 240-189 325-439 329-245 4-410-69-454-268l159-31c24 133 136 168 295 165 144-2 270-31 270-171 0-164-195-160-331-202-167-52-350-87-350-299 0-218 173-315 413-313 220 2 373 77 412 260" id="H"/><path d="M617-1102c355 0 481 238 477 599H322c5 222 84 388 301 388 144 0 244-59 284-166l158 45C1002-72 854 20 623 20c-342 0-490-220-490-568 0-346 151-554 484-554zm291 461c-18-192-90-328-289-328-194 0-287 128-295 328h584" id="I"/><g id="i"><use transform="matrix(0.010850694444444442,0,0,0.010850694444444442,0,0)" xlink:href="#G"/><use transform="matrix(0.010850694444444442,0,0,0.010850694444444442,13.33550347222222,0)" xlink:href="#w"/><use transform="matrix(0.010850694444444442,0,0,0.010850694444444442,26.67100694444444,0)" xlink:href="#H"/><use transform="matrix(0.010850694444444442,0,0,0.010850694444444442,40.00651041666666,0)" xlink:href="#p"/><use transform="matrix(0.010850694444444442,0,0,0.010850694444444442,53.34201388888888,0)" xlink:href="#I"/><use transform="matrix(0.010850694444444442,0,0,0.010850694444444442,66.6775173611111,0)" xlink:href="#s"/><use transform="matrix(0.010850694444444442,0,0,0.010850694444444442,80.01302083333331,0)" xlink:href="#u"/></g><path d="M655-135c108 0 195-33 260-74v-336H622v-160h479v572C981-54 839 20 639 20c-388 0-526-306-526-701 0-406 129-689 529-689 261 0 392 137 461 331l-171 56c-47-131-122-231-288-231-281 0-330 245-330 533 0 179 28 314 84 407s142 139 257 139" id="J"/><path d="M648-963c-190 6-283 138-283 336V0H185v-1484h181c-2 197 6 404-9 587h3c62-120 159-205 339-205 242 0 351 135 350 381V0H868v-695c1-168-57-273-220-268" id="K"/><path d="M102-681c0-398 126-689 513-689 165 0 291 58 379 174s132 287 132 515c0 353-105 610-380 685 49 143 111 234 276 240 36 1 86-7 115-13v134c-94 24-238 34-327-3-143-59-210-191-259-346-336-41-449-320-449-697zm749 406c94-160 97-656-5-807-57-85-130-132-231-132-104 0-178 47-234 132-101 153-99 655 1 809 57 89 130 138 232 138 109 0 184-49 237-140" id="L"/><path d="M237 0v-1349h191v1193h672V0H237" id="M"/><g id="j"><use transform="matrix(0.010850694444444442,0,0,0.010850694444444442,0,0)" xlink:href="#J"/><use transform="matrix(0.010850694444444442,0,0,0.010850694444444442,13.33550347222222,0)" xlink:href="#C"/><use transform="matrix(0.010850694444444442,0,0,0.010850694444444442,26.67100694444444,0)" xlink:href="#t"/><use transform="matrix(0.010850694444444442,0,0,0.010850694444444442,40.00651041666666,0)" xlink:href="#p"/><use transform="matrix(0.010850694444444442,0,0,0.010850694444444442,53.34201388888888,0)" xlink:href="#K"/><use transform="matrix(0.010850694444444442,0,0,0.010850694444444442,66.6775173611111,0)" xlink:href="#L"/><use transform="matrix(0.010850694444444442,0,0,0.010850694444444442,80.01302083333331,0)" xlink:href="#M"/></g><path d="M715 0H502L69-1082h202c94 253 197 500 285 758 19 57 36 126 52 183 96-335 234-626 350-941h201" id="N"/><g id="k"><use transform="matrix(0.010850694444444442,0,0,0.010850694444444442,0,0)" xlink:href="#o"/><use transform="matrix(0.010850694444444442,0,0,0.010850694444444442,13.33550347222222,0)" xlink:href="#w"/><use transform="matrix(0.010850694444444442,0,0,0.010850694444444442,26.67100694444444,0)" xlink:href="#N"/><use transform="matrix(0.010850694444444442,0,0,0.010850694444444442,40.00651041666666,0)" xlink:href="#r"/><use transform="matrix(0.010850694444444442,0,0,0.010850694444444442,53.34201388888888,0)" xlink:href="#q"/></g></defs></g></svg>